<?xml version="1.0" standalone="no"?>
<!DOCTYPE svg PUBLIC "-//W3C//DTD SVG 1.1//EN" "http://www.w3.org/Graphics/SVG/1.1/DTD/svg11.dtd" >
<svg xmlns="http://www.w3.org/2000/svg">
<metadata></metadata>
<defs>
<font id="mgopen_modernaoblique" horiz-adv-x="1167" >
<font-face units-per-em="2048" ascent="1638" descent="-410" />
<missing-glyph horiz-adv-x="552" />
<glyph horiz-adv-x="2048" />
<glyph horiz-adv-x="2048" />
<glyph unicode="&#xd;" horiz-adv-x="552" />
<glyph unicode=" "  horiz-adv-x="552" />
<glyph unicode="&#x09;" horiz-adv-x="552" />
<glyph unicode="&#xa0;" horiz-adv-x="552" />
<glyph unicode="!" horiz-adv-x="348" d="M0 0l47 223h205l-47 -223h-205zM127 360q25 215 37 326q23 190 51 324l104 483h205l-104 -483q-27 -129 -86 -322q-51 -164 -101 -328h-106z" />
<glyph unicode="&#x22;" horiz-adv-x="583" d="M190 893l121 563h142l-121 -563h-142zM489 893l121 563h142l-121 -563h-142z" />
<glyph unicode="#" horiz-adv-x="1564" d="M98 457l84 147h314l151 266h-334l82 148h336l264 465h168l-262 -465h262l262 465h168l-262 -465h307l-84 -148h-307l-151 -266h325l-84 -147h-327l-260 -461h-168l262 461h-260l-267 -461h-165l260 461h-314zM664 604h266l151 266h-268z" />
<glyph unicode="$" horiz-adv-x="1169" d="M80 305q0 41 2 63.5t12 69.5h182q-6 -20 -8 -44.5t-2 -49.5q0 -98 52.5 -157.5t158.5 -67.5l115 532q-186 35 -273.5 106.5t-87.5 192.5q0 39 2.5 58.5t14.5 60.5q43 168 185 273.5t329 105.5l31 139h108l-31 -139q145 0 238 -76q102 -84 102 -235q0 -37 -6 -78h-180 q0 102 -44 159.5t-144 67.5l-101 -473q193 -37 292 -120t99 -216q0 -55 -18 -121q-53 -186 -189.5 -289.5t-365.5 -103.5l-39 -186h-108l38 186q-174 0 -269 91t-95 251zM430 1004q0 -135 201 -170l96 452q-109 0 -186.5 -59.5t-102.5 -157.5q-8 -33 -8 -65zM586 113 q258 29 319 237q10 33 10 76q0 162 -221 199z" />
<glyph unicode="%" horiz-adv-x="1748" d="M213 973q0 166 117 297q127 143 323 143q143 0 221 -82q72 -76 72 -196q0 -168 -117 -299q-128 -146 -325 -146q-143 0 -221 84q-70 76 -70 199zM287 -39l1210 1493h125l-1210 -1493h-125zM367 1001q0 -70 42 -113.5t126 -43.5q115 0 190 84q68 76 68 172q0 72 -41 117 t-125 45q-115 0 -187.5 -82t-72.5 -179zM956 276q0 166 119 299q129 145 326 146q145 0 221 -82q70 -74 70 -197q0 -164 -119 -297q-131 -145 -326 -145q-143 0 -221 82q-70 74 -70 194zM1116 309q0 -70 40 -113.5t122 -43.5q109 0 179.5 80.5t70.5 177.5q0 70 -37 110 q-43 47 -125 47q-109 0 -179.5 -80.5t-70.5 -177.5z" />
<glyph unicode="&#x26;" horiz-adv-x="1462" d="M76 332q0 143 106 266q115 135 369 260q-47 70 -70 125q-29 72 -28 145v46q6 23 8 30q33 156 166 248q119 82 268 82q123 0 207 -64.5t84 -183.5v-33q-6 -27 -8 -39q-27 -125 -136 -231q-86 -86 -229 -162l207 -340q39 53 78 150q18 45 37 96h174q-47 -209 -199 -389 l209 -338h-250l-108 182q-129 -123 -263.5 -183t-257.5 -60q-231 0 -319 196q-45 102 -45 197zM283 369q0 -68 36 -136q61 -117 197 -116q172 -1 371 192l-264 428q-174 -84 -257 -177t-83 -191zM629 1155q0 -63 33 -125q20 -37 73 -104q139 82 199 149q51 59 67 131 q6 29 7 49q0 63 -41 96t-103 33q-78 0 -144.5 -47t-84.5 -131q-6 -29 -6 -51z" />
<glyph unicode="'" horiz-adv-x="348" d="M211 989l20 94q66 10 105 78q29 47 45 125h-107l45 207h205l-51 -238q-20 -96 -91 -166.5t-171 -99.5z" />
<glyph unicode="(" horiz-adv-x="612" d="M82 240q0 150 33 299q55 260 200 512q131 227 347 458h129q-195 -246 -310 -469q-127 -246 -184 -510q-37 -182 -37 -346q0 -154 30 -305t87 -307h-129q-78 152 -122 323t-44 345z" />
<glyph unicode=")" horiz-adv-x="612" d="M-92 -428q193 242 307 459q129 244 182 499q41 184 41 363q0 154 -28.5 299t-87.5 317h129q82 -160 123.5 -321.5t41.5 -343.5q1 -153 -32 -305q-55 -256 -201 -510q-137 -238 -346 -457h-129z" />
<glyph unicode="*" d="M414 1130l90 162l258 -94l63 295h154l-64 -295l299 92l23 -157l-309 -80l145 -250l-155 -98l-130 258l-231 -254l-121 94l254 250z" />
<glyph unicode="+" d="M152 549l30 141h475l117 549h144l-117 -549h479l-31 -141h-477l-117 -549h-143l117 549h-477z" />
<glyph unicode="," horiz-adv-x="352" d="M-66 -305l23 100q66 20 102 82q25 41 43 123h-102l47 223h209l-51 -241q-23 -106 -92.5 -178t-178.5 -109z" />
<glyph unicode="-" horiz-adv-x="704" d="M115 467l35 164h503l-35 -164h-503z" />
<glyph unicode="." horiz-adv-x="352" d="M0 0l47 223h209l-47 -223h-209z" />
<glyph unicode="/" d="M229 -190l867 1726h129l-873 -1726h-123z" />
<glyph unicode="0" d="M229 444q0 356 185 670q203 344 479 344q172 0 262 -143q82 -129 82 -346q0 -358 -184 -670q-204 -342 -480 -342q-172 0 -262 141q-82 129 -82 346zM406 471q0 -154 50 -247t154 -93q182 0 322 279q129 256 129 534q0 154 -47 242q-53 98 -158 98q-182 0 -321 -278 q-129 -256 -129 -535z" />
<glyph unicode="1" d="M539 1028l30 146q174 0 267 55q102 61 178 225h145l-311 -1454h-195l219 1028h-333z" />
<glyph unicode="2" d="M88 0q59 276 305 463q6 4 436 256q236 137 271 301q6 31 6 59q0 94 -63.5 146.5t-161.5 52.5q-121 0 -222 -82q-115 -94 -151 -266h-189q55 256 236 399q158 125 358 125q166 0 281 -91t115 -249q0 -16 -1 -30.5t-10 -59.5q-49 -225 -249 -360q-197 -98 -392 -197 q-233 -121 -321 -287h782l-39 -180h-991z" />
<glyph unicode="3" d="M162 322q0 63 14 133h193q-10 -51 -11 -88q0 -113 70 -169.5t186 -56.5q131 0 228 66q106 74 135 207q8 33 8 67q0 117 -119 160q-80 29 -245 29l34 164q174 0 248 28q125 49 158 199q6 29 6 51q0 84 -58.5 134t-148.5 50q-127 0 -220 -80.5t-132 -240.5h-184 q51 240 202.5 363.5t358.5 123.5q166 0 275.5 -84t109.5 -231v-37q-6 -29 -8 -43q-20 -98 -83 -172t-161 -121q86 -31 128 -98.5t42 -161.5q0 -39 -10 -94q-45 -211 -224 -338q-166 -119 -372 -119q-190 0 -299 84q-121 94 -121 275z" />
<glyph unicode="4" d="M147 358l41 185l813 870h189l-191 -891h207l-35 -164h-206l-76 -358h-187l76 358h-631zM352 522h461l139 649z" />
<glyph unicode="5" d="M156 313q0 41 4 64h190q0 -119 70 -184q63 -59 166 -60q131 0 243 86q125 94 156 244q4 16 6 37.5t2 38.5q0 113 -71.5 176t-186.5 63q-78 0 -155.5 -32.5t-149.5 -98.5h-170l277 766h774l-37 -174h-635l-141 -385q76 49 152.5 71.5t152.5 22.5q168 0 281.5 -105.5 t113.5 -275.5q0 -49 -12 -104q-51 -238 -240 -375q-170 -123 -377 -123q-174 0 -288 88q-125 96 -125 260z" />
<glyph unicode="6" d="M190 412q0 53 6.5 109.5t20.5 127.5q86 401 311 619q195 186 422 186q152 0 256.5 -92t104.5 -242q0 -33 -6 -67h-193q2 12 2 34q0 92 -59.5 147.5t-147.5 55.5q-137 0 -258 -121q-143 -143 -203 -407q86 78 184.5 118t194.5 40q160 0 266.5 -97.5t106.5 -261.5 q0 -23 -2 -49t-8 -51q-47 -221 -234 -369q-174 -137 -372 -137q-170 0 -275 108q-117 121 -117 349zM389 354q0 -111 70 -174q63 -57 164 -57q117 0 217 80q110 87 143 237q8 39 9 49.5t1 38.5q0 111 -66.5 171.5t-166.5 60.5q-117 0 -217 -80q-111 -88 -144 -238 q-8 -39 -9 -49t-1 -39z" />
<glyph unicode="7" d="M285 0q143 369 341.5 651.5t512.5 573.5h-789l39 188h991l-37 -174q-309 -289 -506.5 -577.5t-340.5 -661.5h-211z" />
<glyph unicode="8" d="M160 322q0 139 87 266t245 190q-72 43 -105 101.5t-33 128.5q0 164 156 301q166 145 385 145q176 0 281 -94q98 -88 98 -219q0 -104 -64 -197q-69 -103 -200 -166q86 -43 130 -117.5t44 -162.5q0 -199 -168 -361q-182 -176 -441 -176q-201 0 -313 109q-102 98 -102 252z M369 352q0 -96 57 -153q65 -66 186 -66q160 0 267 111q98 102 98 229q0 94 -57 150q-66 63 -189 63q-160 0 -266 -108q-96 -98 -96 -226zM553 1016q0 -78 52.5 -130t156.5 -52q133 0 221 88q80 80 80 184q0 78 -52.5 129t-156.5 51q-133 0 -221 -88q-80 -80 -80 -182z" />
<glyph unicode="9" d="M154 285q0 18 3 39.5t5 33.5h194q-4 -16 -4 -45q0 -82 61.5 -137t153.5 -55q133 0 248 117q139 141 205 411q-176 -158 -379 -157q-184 0 -283 104q-88 94 -88 250q0 225 162 407q178 201 445 201q213 0 315 -131q90 -115 90 -319q0 -103 -27 -230q-90 -416 -313 -635 q-190 -186 -416 -186q-158 0 -265 93t-107 239zM475 895q0 -102 58.5 -167.5t177.5 -65.5q162 0 268 126q98 117 98 261q0 104 -55 168q-61 72 -178 71q-160 0 -269 -129q-100 -119 -100 -264z" />
<glyph unicode=":" horiz-adv-x="352" d="M0 0l47 223h209l-47 -223h-209zM184 862l47 225h209l-47 -225h-209z" />
<glyph unicode=";" horiz-adv-x="352" d="M-66 -305l23 100q68 23 102 82q23 39 41 123h-100l47 223h209l-51 -241q-23 -106 -92.5 -178t-178.5 -109zM184 862l47 225h209l-47 -225h-209z" />
<glyph unicode="&#x3c;" d="M145 555l29 131l1219 492l-35 -158l-989 -399l819 -400l-35 -160z" />
<glyph unicode="=" d="M88 346l31 143h1138l-30 -143h-1139zM174 752l31 141h1138l-30 -141h-1139z" />
<glyph unicode="&#x3e;" d="M39 61l35 160l989 400l-819 399l35 158l1009 -492l-28 -131z" />
<glyph unicode="?" horiz-adv-x="1038" d="M223 1042q51 246 219 379q150 119 332 119q156 0 265.5 -87t109.5 -228q0 -14 -1 -30.5t-7 -47.5q-33 -150 -156 -262q-111 -92 -221 -185q-123 -123 -152 -299h-178q31 184 148 318q8 10 215 194q119 106 141 211q6 35 6 62q0 86 -56.5 138t-139.5 52q-106 0 -197 -78 q-102 -90 -145 -256h-183zM340 0l47 223h205l-47 -223h-205z" />
<glyph unicode="@" horiz-adv-x="2000" d="M94 352q0 412 340 758q371 377 897 377q358 0 543 -174q162 -152 162 -400q0 -295 -209 -538q-221 -256 -522 -256q-82 0 -122 26.5t-40 90.5q0 31 8 61q-74 -84 -160 -130t-186 -46q-129 0 -191.5 66.5t-62.5 179.5q0 215 178 424q193 227 430 227q178 0 221 -150 l82 117h131q-96 -201 -159 -336q-121 -258 -134 -317q-2 -8 -2 -23q0 -31 24 -48t60 -17q193 0 347.5 205.5t154.5 439.5q0 207 -129 332q-150 143 -450 143q-453 0 -773 -330q-293 -303 -292 -661q0 -244 151 -389q170 -164 496 -164q162 0 348 50t332 140l39 -78 q-168 -106 -363.5 -168.5t-372.5 -62.5q-387 0 -591 193q-184 174 -185 458zM719 393q0 -76 34.5 -120t110.5 -44q168 0 289 174q35 52 160 318q0 86 -44 136t-126 50q-162 0 -297 -180q-127 -168 -127 -334z" />
<glyph unicode="A" horiz-adv-x="1486" d="M0 0l874 1493h226l237 -1493h-221l-61 446h-588l-256 -446h-211zM565 621h467l-92 657z" />
<glyph unicode="B" horiz-adv-x="1292" d="M0 0l319 1493h607q170 0 278 -66q125 -76 125 -219v-45q-6 -23 -8 -30q-23 -111 -102.5 -200t-190.5 -128q109 -14 167 -85t58 -177q0 -45 -8 -84q-45 -207 -225 -336q-172 -123 -383 -123h-637zM244 182h413q125 0 232 68q117 74 143 196q6 29 6 52q0 102 -94 157 q-80 47 -201 47h-389zM389 866h354q123 0 222 54q117 63 143 178q4 16 4 45q0 86 -76 134t-174 48h-375z" />
<glyph unicode="C" horiz-adv-x="1392" d="M135 524q0 111 25 228q74 336 293 551q240 233 567 233q209 0 352 -109q154 -117 154 -309q0 -37 -6 -74h-197q0 143 -93 228.5t-241 85.5q-238 0 -416 -191q-160 -170 -213 -415q-18 -84 -18 -166q0 -193 90 -310q100 -131 293 -131q176 0 313.5 117t190.5 297h196 q-53 -260 -275 -429t-486 -169t-402 162q-127 150 -127 401z" />
<glyph unicode="D" horiz-adv-x="1378" d="M0 0l319 1493h574q250 0 387 -152q127 -141 127 -378q0 -41 -6 -93.5t-17 -101.5q-68 -311 -282 -530q-236 -238 -539 -238h-563zM244 182h350q217 0 379 183q141 160 190 387q18 80 19 161q0 176 -80 285q-90 123 -264 123h-351z" />
<glyph unicode="E" horiz-adv-x="1163" d="M0 0l319 1493h1070l-39 -182h-865l-96 -449h795l-37 -174h-795l-108 -504h880l-39 -184h-1085z" />
<glyph unicode="F" horiz-adv-x="1056" d="M0 0l319 1493h1008l-39 -184h-801l-96 -449h699l-39 -184h-699l-145 -676h-207z" />
<glyph unicode="G" horiz-adv-x="1490" d="M137 547q0 100 21 190q72 340 305 563q248 238 581 238q217 0 363 -113q156 -121 156 -319v-31q-4 -20 -4 -31h-197q0 143 -99.5 232.5t-252.5 89.5q-242 0 -424 -192q-164 -172 -217 -424q-18 -84 -19 -164q0 -193 94 -314q104 -133 299 -133q207 0 365 150 q147 139 203 352h-469l35 168h653l-172 -809h-131l-2 201q-113 -115 -253.5 -178.5t-285.5 -63.5q-260 0 -410 172q-139 162 -139 416z" />
<glyph unicode="H" horiz-adv-x="1349" d="M0 0l319 1493h207l-131 -610h776l132 610h200l-319 -1493h-201l150 700h-777l-149 -700h-207z" />
<glyph unicode="I" horiz-adv-x="432" d="M61 0l320 1493h205l-320 -1493h-205z" />
<glyph unicode="J" horiz-adv-x="1030" d="M78 276q0 92 24 207h197q-6 -27 -12 -70.5t-6 -72.5q0 -92 34 -139q43 -59 142 -60q152 0 225 111q47 72 86 244l213 997h205l-232 -1081q-94 -451 -538 -451q-182 0 -264 86q-74 76 -74 229z" />
<glyph unicode="K" horiz-adv-x="1335" d="M0 0l319 1493h205l-153 -717l872 717h270l-741 -608l436 -885h-250l-364 752l-277 -226l-112 -526h-205z" />
<glyph unicode="L" horiz-adv-x="1026" d="M0 0l319 1493h207l-280 -1307h745l-39 -186h-952z" />
<glyph unicode="M" horiz-adv-x="1572" d="M0 0l319 1493h295l131 -1260l693 1260h288l-319 -1493h-199l275 1280l-690 -1280h-195l-137 1276l-273 -1276h-188z" />
<glyph unicode="N" horiz-adv-x="1347" d="M0 0l319 1493h224l506 -1210l260 1210h192l-319 -1493h-221l-508 1212l-260 -1212h-193z" />
<glyph unicode="O" horiz-adv-x="1558" d="M137 539q0 96 23 204q70 334 305 555q251 238 579 238q268 0 416 -166q137 -156 137 -412q0 -94 -22 -202q-72 -332 -301 -555q-248 -240 -572 -240q-272 0 -423 166q-141 154 -142 412zM350 575q0 -190 92 -305q102 -127 297 -127q233 0 412 189q160 168 211 411 q18 84 18 164q0 190 -90 307q-102 131 -295 132q-233 0 -413 -189q-162 -170 -213 -414q-18 -86 -19 -168z" />
<glyph unicode="P" horiz-adv-x="1187" d="M0 0l319 1493h627q166 0 264.5 -90t98.5 -242q0 -57 -11 -100q-43 -195 -198.5 -313.5t-354.5 -118.5h-403l-135 -629h-207zM379 809h342q127 0 233 61q121 72 148 193q6 29 6 51q0 96 -78.5 146.5t-189.5 50.5h-353z" />
<glyph unicode="Q" horiz-adv-x="1581" d="M137 541q0 94 23 202q70 332 305 555q250 238 577 238q276 0 426 -164q141 -154 142 -414q0 -61 -4 -104t-19 -104q-35 -166 -116.5 -318.5t-208.5 -275.5l147 -148l-125 -125l-174 170q-94 -49 -195.5 -70.5t-209.5 -21.5q-272 0 -424 164q-143 156 -144 416zM350 575 q0 -193 94 -311q104 -131 304 -131q117 0 225 49l-137 135l125 127l165 -161q94 82 164 213q59 115 88 241q18 90 19 178q0 197 -92 314q-102 131 -301 131q-240 0 -420 -193q-164 -174 -215 -422q-18 -86 -19 -170z" />
<glyph unicode="R" horiz-adv-x="1337" d="M0 0l319 1493h584q186 0 307 -78q135 -88 136 -250q0 -35 -11 -86q-23 -106 -98.5 -198.5t-181.5 -139.5q68 -23 94.5 -73t26.5 -125q0 -55 -17 -146q-37 -203 -37 -239q0 -80 39 -119l-8 -39h-233q-18 47 -19 104q0 61 25.5 189.5t25.5 173.5q0 84 -41 123 q-51 49 -172 49h-397l-137 -639h-205zM377 813h348q135 0 250 64q135 76 162 202q4 12 4 26.5v20.5q0 100 -103 152q-84 43 -204 43h-349z" />
<glyph unicode="S" horiz-adv-x="1312" d="M92 373q0 39 2 61.5t12 63.5h193q-6 -23 -8 -47.5t-2 -51.5q0 -129 81 -201.5t224 -72.5q139 0 268 65q154 78 182 209q4 18 5 50q0 121 -201 186q-186 55 -373 110q-203 86 -203 256q0 25 1 38.5t10 52.5q45 209 231 331q172 113 387 113q197 0 324 -99.5t127 -273.5 q0 -51 -13 -106h-192q4 16 6 38.5t2 41.5q0 113 -73.5 176t-202.5 63t-240 -61q-131 -74 -158 -195q-2 -12 -3 -26.5t-1 -20.5q0 -119 203 -178q188 -53 379 -104q205 -86 205 -265q0 -20 -2.5 -45.5t-8.5 -50.5q-47 -219 -258 -350q-190 -119 -417 -119q-217 0 -349 107 q-137 113 -137 305z" />
<glyph unicode="T" horiz-adv-x="1230" d="M281 1315l38 178h1147l-39 -176h-471l-280 -1317h-205l281 1315h-471z" />
<glyph unicode="U" horiz-adv-x="1333" d="M106 420q0 55 2.5 80.5t14.5 79.5l196 913h203l-196 -915q-12 -55 -13 -109q0 -139 77 -225t224 -86q174 0 306.5 121.5t169.5 298.5l196 915h207l-197 -913q-55 -266 -262 -441.5t-473 -175.5q-219 0 -337 126t-118 331z" />
<glyph unicode="V" horiz-adv-x="1386" d="M319 1493h211l162 -1249l686 1249h213l-846 -1493h-213z" />
<glyph unicode="W" horiz-adv-x="1992" d="M319 1493h201l49 -1194l572 1194h213l71 -1186l566 1186h192l-715 -1493h-200l-78 1233l-592 -1233h-207z" />
<glyph unicode="X" horiz-adv-x="1386" d="M0 0l676 766l-330 727h248l237 -553l484 553h237l-645 -725l353 -768h-252l-254 604l-508 -604h-246z" />
<glyph unicode="Y" horiz-adv-x="1306" d="M319 1493h207l248 -707l547 707h207l-686 -879l-131 -614h-207l131 614z" />
<glyph unicode="Z" horiz-adv-x="1251" d="M0 0l37 168l1161 1153h-856l37 172h1089l-38 -184l-1139 -1127h897l-39 -182h-1149z" />
<glyph unicode="[" horiz-adv-x="546" d="M-88 -414l407 1907h404l-31 -137h-221l-348 -1630h221l-29 -140h-403z" />
<glyph unicode="\" horiz-adv-x="770" d="M328 1536h123l135 -1726h-129z" />
<glyph unicode="]" horiz-adv-x="548" d="M-88 -414l29 140h223l348 1630h-223l30 137h406l-408 -1907h-405z" />
<glyph unicode="^" d="M528 1139l273 354h200l125 -354h-122l-127 233l-224 -233h-125z" />
<glyph unicode="_" horiz-adv-x="1183" d="M-104 -492l30 148h1041l-31 -148h-1040z" />
<glyph unicode="`" horiz-adv-x="348" d="M219 1030l51 240q20 98 89 166.5t173 99.5l-20 -94q-66 -12 -102 -78q-27 -47 -43 -127h102l-45 -207h-205z" />
<glyph unicode="a" horiz-adv-x="1171" d="M51 205q0 35 10 82q43 205 238 288q102 45 323.5 68t247.5 70q8 16 14.5 30.5t10.5 34t4 29.5q0 74 -63.5 116t-149.5 42q-100 0 -183 -55.5t-116 -151.5h-176q43 178 191.5 279.5t330.5 101.5q150 0 246 -70q106 -78 106 -211v-43q-6 -23 -8 -31l-116 -542 q-8 -41 -9 -58q0 -25 11.5 -38t44.5 -13l53 6l-31 -139q-70 -25 -129 -25q-74 0 -103.5 43t-29.5 123q-84 -84 -199.5 -131t-228.5 -47q-133 0 -211 62.5t-78 179.5zM248 256q0 -66 46 -99.5t122 -33.5q121 0 235 70q129 79 154 194l35 162q-33 -12 -242 -45 q-311 -49 -346 -207q-4 -29 -4 -41z" />
<glyph unicode="b" horiz-adv-x="1155" d="M0 0l319 1493h179l-119 -557q72 86 166 131t196 45q186 0 297 -127q102 -119 103 -303q-1 -70 -15 -133q-49 -233 -215 -402q-180 -184 -407 -184q-102 0 -178 45t-119 129l-29 -137h-178zM262 422q0 -131 57 -209q66 -90 195 -90q156 0 274 127q105 112 142 276 q6 31 10 61.5t4 61.5q0 131 -59 211q-68 90 -197 90q-154 0 -272 -129q-106 -115 -140 -276q-6 -31 -10 -61.5t-4 -61.5z" />
<glyph unicode="c" horiz-adv-x="1142" d="M100 387q0 76 19 160q53 248 221 405q180 170 422 170q184 0 298 -107.5t114 -287.5h-197q0 102 -70.5 166.5t-175.5 64.5q-162 0 -276 -127q-102 -113 -140 -282q-6 -31 -10 -61.5t-4 -61.5q0 -127 59 -207q68 -90 197 -90q115 0 212 71.5t151 188.5h198 q-70 -193 -239.5 -310.5t-364.5 -117.5q-203 0 -308.5 117t-105.5 309z" />
<glyph unicode="d" horiz-adv-x="1173" d="M100 406q0 70 15 133q51 236 219 403q182 182 411 182q102 0 177 -43t114 -127l115 539h176l-319 -1493h-177l29 137q-88 -82 -186.5 -128t-198.5 -46q-178 0 -280 135q-94 123 -95 308zM301 422q0 -127 59 -207q68 -90 195 -90q162 0 281 137q104 121 139 289 q12 59 12 119q0 127 -57 204q-66 88 -193 89q-162 0 -282 -136q-104 -117 -142 -288q-12 -59 -12 -117z" />
<glyph unicode="e" horiz-adv-x="1198" d="M98 391q0 63 17 146q51 244 227 411q188 180 428 180q205 0 311 -135q96 -121 97 -321q0 -41 -6.5 -92.5t-16.5 -98.5h-846q-2 -16 -3 -31.5t-1 -35.5q0 -125 60 -201q68 -86 192 -86q106 0 203.5 65.5t144.5 169.5h201q-78 -182 -238.5 -291.5t-347.5 -109.5 q-203 0 -312.5 119t-109.5 311zM342 633h643q2 14 2 41q0 123 -67.5 203.5t-190.5 80.5q-133 0 -242 -98q-96 -88 -145 -227z" />
<glyph unicode="f" horiz-adv-x="696" d="M178 0l201 940h-178l30 147h179q49 221 88 291q78 137 254 138q37 0 59.5 -2.5t67.5 -8.5l-35 -166q-43 14 -78 15q-74 0 -115 -70q-27 -45 -43 -133l-14 -64h194l-30 -147h-195l-201 -940h-184z" />
<glyph unicode="g" horiz-adv-x="1234" d="M16 -178q0 35 4 53h183q0 -82 75.5 -131t165.5 -49q162 0 279 143q94 115 139 293q-82 -78 -179 -122t-196 -44q-186 0 -290 129q-96 121 -97 307q0 68 17 146q47 221 213 389q180 182 397 182q100 0 177 -43t130 -125l29 137h180l-221 -1036q-49 -229 -224 -365.5 t-405 -136.5q-150 0 -256 66q-121 76 -121 207zM303 426q0 -131 59 -211q68 -90 197 -90q158 0 277 135q102 117 139 283q12 59 12 119q0 133 -57 210q-66 90 -197 91q-158 0 -276 -134q-104 -119 -142 -284q-12 -59 -12 -119z" />
<glyph unicode="h" horiz-adv-x="1067" d="M0 0l319 1493h181l-121 -559q61 90 173 138t222 48q147 0 225 -84q72 -78 72 -215q0 -25 -4 -56.5t-10 -68.5l-150 -696h-184l143 670q12 49 13 100q0 88 -37 137q-43 57 -135 58q-127 0 -244 -96.5t-146 -225.5l-137 -643h-180z" />
<glyph unicode="i" horiz-adv-x="405" d="M20 0l232 1087h180l-231 -1087h-181zM295 1286l45 207h180l-45 -207h-180z" />
<glyph unicode="j" horiz-adv-x="514" d="M-203 -408l37 168h53q78 0 107 31t47 115l252 1181h184l-256 -1206q-35 -154 -114.5 -222.5t-233.5 -68.5zM336 1284l45 209h184l-45 -209h-184z" />
<glyph unicode="k" horiz-adv-x="1028" d="M0 0l319 1493h179l-193 -899l602 496h230l-490 -404l250 -686h-205l-200 563l-234 -192l-80 -371h-178z" />
<glyph unicode="l" horiz-adv-x="411" d="M61 0l320 1493h184l-319 -1493h-185z" />
<glyph unicode="m" horiz-adv-x="1662" d="M0 0l233 1090h173l-31 -146q63 82 152 130t180 48q96 0 169.5 -48t102.5 -130q66 88 167 134t206 46q145 0 233 -76.5t88 -209.5q0 -43 -8 -82l-162 -756h-180l143 670q6 29 8.5 43t2.5 45q0 94 -39 149q-45 66 -138 66q-119 0 -210 -109q-80 -94 -107 -221l-137 -643 h-187l144 670q10 51 10 92q0 92 -37 143q-43 61 -135 62q-119 0 -213 -105q-82 -92 -111 -219l-137 -643h-180z" />
<glyph unicode="n" horiz-adv-x="1067" d="M0 0l233 1090h173l-35 -160q68 92 179.5 144t221.5 52q150 0 225 -88q70 -80 70 -221q0 -41 -2 -63.5t-12 -69.5l-146 -684h-184l143 670q10 55 11 94q0 90 -41 143q-47 59 -140 60q-133 0 -247.5 -105.5t-143.5 -240.5l-133 -621h-172z" />
<glyph unicode="o" horiz-adv-x="1210" d="M100 393q0 68 17 150q51 244 223 405q184 174 426 174q201 0 313 -125q104 -117 105 -309q0 -68 -17 -145q-53 -246 -225 -408q-182 -172 -424 -172q-203 0 -310.5 119t-107.5 311zM301 424q0 -131 57 -209q66 -90 195 -90q160 0 281 133q106 119 143 287q12 59 12 119 q0 131 -59 208q-68 88 -199 89q-158 0 -276 -134q-102 -115 -140 -282q-6 -31 -10 -61.5t-4 -59.5z" />
<glyph unicode="p" horiz-adv-x="1159" d="M-88 -410l321 1500h179l-35 -156q76 86 176 137t205 51q186 0 289 -129q94 -119 94 -307q-1 -67 -17 -149q-49 -231 -213 -396q-176 -176 -403 -176q-211 0 -301 166l-117 -541h-178zM262 426q0 -129 60 -209q68 -90 196 -90q158 0 279 135q104 119 141 285q12 59 12 115 q0 129 -59 208q-68 90 -199 91q-160 0 -278 -136q-102 -117 -140 -284q-12 -59 -12 -115z" />
<glyph unicode="q" horiz-adv-x="1292" d="M98 395q0 66 17 142q49 231 215 399q182 184 407 184q213 0 295 -180l31 147h176l-319 -1497h-177l119 553q-63 -86 -161.5 -132t-198.5 -46q-193 0 -298.5 122t-105.5 308zM303 430q0 -131 59 -213q68 -94 197 -94q160 0 279 141q102 121 139 289q12 55 12 113 q0 129 -59 206q-68 88 -197 89q-156 0 -274 -127q-106 -115 -142 -279q-6 -31 -10 -61.5t-4 -63.5z" />
<glyph unicode="r" horiz-adv-x="636" d="M0 0l231 1087h172l-41 -196q68 121 166.5 170t233.5 49l-41 -195h-19q-158 0 -259 -75.5t-134 -233.5l-129 -606h-180z" />
<glyph unicode="s" horiz-adv-x="1028" d="M66 258v29.5t10 62.5h178q-6 -29 -6 -51q0 -84 61.5 -129t159.5 -45q96 0 180 41q102 49 123 139q2 8 2 16.5v12.5q0 82 -144.5 123t-283.5 82q-151 66 -151 192v29q0 12 8 43q33 154 184 241q133 78 293 78q147 0 246 -65q110 -73 110 -201v-43q-6 -20 -8 -29h-178 q4 29 4 39q0 72 -61.5 109t-145.5 37t-153 -31q-90 -39 -107 -115q-4 -25 -4 -32q0 -82 144.5 -121t285.5 -76q154 -63 154 -199v-45q-7 -23 -9 -31q-35 -166 -206 -266q-152 -88 -328 -88q-160 0 -259 76t-99 217z" />
<glyph unicode="t" horiz-adv-x="675" d="M197 135q0 37 8 76l155 729h-159l30 147h160l66 306h182l-66 -306h199l-31 -147h-198l-144 -668q-6 -25 -6 -47q0 -75 90 -75h2q35 0 56.5 4t31.5 4l-32 -158q-43 -4 -83 -8t-73 -4q-188 0 -188 147z" />
<glyph unicode="u" horiz-adv-x="1075" d="M68 256q0 39 2 61.5t12 63.5l149 706h185l-142 -667q-12 -49 -12 -103q0 -86 40 -141t128 -55q141 0 262 123q111 113 142 258l124 585h183l-232 -1087h-174l35 162q-76 -92 -189.5 -145.5t-226.5 -53.5q-143 0 -214.5 80t-71.5 213z" />
<glyph unicode="v" horiz-adv-x="1122" d="M231 1087h197l121 -870l481 870h197l-631 -1087h-195z" />
<glyph unicode="w" horiz-adv-x="1622" d="M231 1087h193l51 -831l393 831h213l37 -831l412 831h190l-565 -1087h-184l-53 836l-408 -836h-182z" />
<glyph unicode="x" horiz-adv-x="1126" d="M0 0l498 559l-248 528h215l182 -389l346 389h213l-477 -526l266 -561h-219l-196 422l-367 -422h-213z" />
<glyph unicode="y" horiz-adv-x="1136" d="M59 -393l37 174q6 -2 38 -9.5t63 -7.5q70 0 122 68q16 20 78 129l-166 1126h203l115 -880l491 880h201l-694 -1210q-74 -123 -158 -196q-106 -92 -221 -93q-59 0 -109 19z" />
<glyph unicode="z" horiz-adv-x="1028" d="M0 0l31 147l807 781h-609l33 159h846l-31 -149l-801 -776h664l-35 -162h-905z" />
<glyph unicode="{" horiz-adv-x="851" d="M98 463l33 151q276 0 344 228l94 426q102 229 459 229l-31 -147q-229 0 -290 -174q-33 -178 -66 -355q-57 -217 -266 -282q86 -31 118.5 -84.5t32.5 -132.5q0 -72 -43 -223.5t-43 -211.5q0 -76 46 -115.5t165 -39.5l-33 -154q-211 0 -299 68q-74 57 -73 172 q0 78 51 241.5t51 229.5q0 84 -51 125q-61 49 -199 49z" />
<glyph unicode="|" d="M430 -356l164 770h156l-164 -770h-156zM651 682l166 772h156l-166 -772h-156z" />
<glyph unicode="}" horiz-adv-x="851" d="M-90 -422l33 154q223 0 286 176l70 356q59 213 266 275q-84 29 -118.5 85t-34.5 132q0 74 43 225.5t43 210.5q0 78 -41 115q-49 43 -168 43l30 147q211 0 299 -67q74 -57 74 -173q0 -72 -30 -178q-72 -248 -72 -291q0 -84 51 -124q61 -49 199 -50l-33 -151 q-281 0 -338 -230q-41 -213 -80 -426q-98 -229 -479 -229z" />
<glyph unicode="~" horiz-adv-x="1372" d="M209 981q39 184 143 299q121 133 299 133q141 0 255 -142.5t212 -142.5q115 0 182 93q51 70 76 192h154q-39 -186 -144 -301q-121 -131 -301 -131q-135 0 -251.5 141.5t-208.5 141.5q-111 0 -181 -90q-55 -72 -82 -193h-153z" />
<glyph unicode="&#xa3;" horiz-adv-x="1181" d="M33 113q215 160 276.5 253t61.5 189q0 25 -6.5 56.5t-8.5 41.5h-217l23 103h160q-39 102 -39 211q0 219 143 364q156 158 420 158q168 0 280.5 -89t112.5 -241q0 -37 -10 -84l-15 -65h-186q12 53 12 96q0 100 -55 157.5t-168 57.5q-180 0 -262 -96q-68 -80 -68 -219 q0 -59 10.5 -118t30.5 -132h324l-23 -103h-278q6 -35 6 -63q0 -139 -139 -285q-45 -47 -160 -147q59 25 117.5 38t99.5 13q68 0 167 -34t151 -34q49 0 94 13.5t112 50.5l52 -144q-70 -53 -134.5 -76.5t-125.5 -23.5q-59 0 -256 62q-98 31 -164 30q-68 0 -128.5 -18.5 t-140.5 -65.5z" />
<glyph unicode="&#xa4;" horiz-adv-x="1216" d="M156 449l245 202q-14 41 -14 90q0 137 98 252l-168 213l142 117l172 -219q41 16 86 26.5t94 10.5t91 -10.5t73 -26.5l266 219l92 -117l-256 -211q20 -47 21 -110q0 -129 -86 -234l159 -202l-141 -117l-160 203q-90 -45 -200 -46q-104 0 -176 46l-246 -203zM528 772 q0 -66 42 -107.5t128 -41.5q113 0 183.5 72.5t70.5 160.5q0 66 -39 105q-45 45 -131 45q-113 0 -183.5 -73t-70.5 -161z" />
<glyph unicode="&#xa5;" horiz-adv-x="1306" d="M281 453l24 108h320l10 53l-35 101l-262 4l22 108h197l-238 666h207l248 -707l547 707h207l-520 -666h196l-24 -110h-258l-80 -103l-11 -53h318l-27 -106l-315 -4l-96 -451h-207l96 453h-319z" />
<glyph unicode="&#xa6;" d="M430 -356l164 770h156l-164 -770h-156zM651 682l166 772h156l-166 -772h-156z" />
<glyph unicode="&#xa7;" horiz-adv-x="1017" d="M94 74q0 33 6 67h176q-6 -25 -6 -47q0 -61 40 -97t108 -36q66 0 129 31q78 37 90 96q4 12 4 23.5v17.5q0 92 -127 172q-119 70 -238 141q-129 94 -129 215q0 31 7 66q18 88 84.5 165t160.5 126q-61 61 -61 141q0 29 4 43q33 158 164 254q117 86 260 86q119 0 198.5 -66.5 t79.5 -193.5q0 -14 -1 -30.5t-7 -47.5h-174q2 12 2 33q0 74 -41 112.5t-100 38.5q-66 0 -123 -39.5t-70 -103.5q-2 -10 -2 -31q0 -74 125 -149q117 -70 236 -139q127 -96 127 -224v-34q-6 -25 -8 -37q-16 -82 -90 -167t-156 -116q63 -70 63 -164q0 -29 -6 -57 q-31 -141 -166 -234q-125 -86 -270 -86q-133 0 -211 74t-78 197zM346 750q0 -88 139 -189q160 -96 197 -121q51 27 88 70t47 94q2 8 2 27q0 102 -190 219q-72 39 -142 80q-57 -33 -88 -64q-41 -41 -51 -92q-2 -8 -2 -24z" />
<glyph unicode="&#xa8;" horiz-adv-x="342" d="M168 1542l45 211h188l-45 -211h-188zM504 1542l45 211h188l-45 -211h-188z" />
<glyph unicode="&#xa9;" horiz-adv-x="1630" d="M135 565q0 346 248 623q270 303 678 303q299 0 459 -172q145 -156 145 -406q0 -346 -246 -620q-270 -303 -680 -303q-297 0 -458 172q-145 156 -146 403zM238 588q0 -215 124 -350q140 -150 398 -150q352 0 588 264q213 240 213 539q0 217 -125 352q-139 150 -398 150 q-350 0 -585 -265q-215 -242 -215 -540zM479 614q0 213 139 390q154 195 375 194q121 0 204 -65.5t83 -178.5q0 -20 -2 -32h-145q0 72 -47.5 116.5t-118.5 44.5q-141 0 -240 -151q-88 -135 -88 -299q0 -102 43 -167t127 -65q88 0 156.5 48.5t101.5 132.5h152 q-45 -135 -166 -218t-260 -83q-156 0 -235 94t-79 239z" />
<glyph unicode="&#xaa;" horiz-adv-x="585" d="M223 1026q0 10 4 39q25 115 140 154q133 29 266 59l12 31q8 45 -23.5 70.5t-80.5 25.5t-91 -27.5t-59 -77.5h-88q23 90 96.5 140.5t165.5 50.5q72 0 123 -37t51 -102q0 -12 -4 -37l-57 -273q-4 -20 -4 -28q0 -25 26 -25l27 2l-14 -69q-35 -12 -64 -13q-37 0 -52 21.5 t-15 62.5q-43 -43 -100.5 -66.5t-114.5 -23.5q-143 0 -144 123zM322 1051q0 -68 84 -68q61 0 121.5 37t72.5 96l18 80q-109 -18 -167 -31q-113 -25 -127 -94q-2 -8 -2 -20z" />
<glyph unicode="&#xab;" horiz-adv-x="890" d="M96 446l43 203l381 248l-39 -180l-254 -168l183 -170l-39 -176zM514 446l43 203l383 248l-39 -180l-254 -168l182 -170l-38 -176z" />
<glyph unicode="&#xac;" horiz-adv-x="1183" d="M106 494l23 112h1040l-79 -373h-113l57 261h-928z" />
<glyph unicode="&#xad;" horiz-adv-x="1183" d="M106 494l23 112h1040l-22 -112h-1041z" />
<glyph unicode="&#xae;" horiz-adv-x="1630" d="M135 565q0 346 248 623q270 303 678 303q299 0 459 -172q145 -156 145 -406q0 -346 -246 -620q-270 -303 -680 -303q-297 0 -458 172q-145 156 -146 403zM238 588q0 -215 124 -350q140 -150 398 -150q352 0 588 264q213 240 213 539q0 217 -125 352q-139 150 -398 150 q-350 0 -585 -265q-215 -242 -215 -540zM401 215l224 1045h409q133 0 215 -54q94 -61 94 -174q0 -27 -6 -61q-16 -76 -68 -139.5t-126 -98.5q47 -16 65.5 -50t18.5 -87q0 -35 -27 -174q-12 -63 -12 -98q0 -57 26 -82l-6 -27h-161q-12 35 -13 72q0 41 10 96q25 133 25 158 q0 57 -29 86q-37 35 -120 35h-279l-96 -447h-144zM668 784h243q94 0 174 45q94 53 113 142q4 25 4 35q0 70 -64.5 101.5t-150.5 31.5h-244z" />
<glyph unicode="&#xaf;" horiz-adv-x="1382" d="M326 1524l24 112h1389l-25 -112h-1388z" />
<glyph unicode="&#xb0;" horiz-adv-x="655" d="M301 1382q0 119 84 213q92 104 233 105q102 0 158 -60q49 -53 49 -141q0 -117 -84 -211q-92 -104 -231 -104q-102 0 -155.5 57t-53.5 141zM430 1405q0 -43 27 -71.5t78 -28.5q72 0 116.5 51t44.5 112q0 43 -26.5 72t-77.5 29q-72 0 -117 -51.5t-45 -112.5z" />
<glyph unicode="&#xb1;" d="M23 31l30 139h1135l-31 -139h-1134zM170 723l31 141h495l74 344h143l-73 -344h495l-30 -141h-494l-74 -346h-143l74 346h-498z" />
<glyph unicode="&#xb2;" horiz-adv-x="794" d="M121 563q35 162 192 271q141 76 285 151q154 86 176 191q4 20 4 32q0 57 -44 91t-111 34q-80 0 -147.5 -52t-90.5 -159h-125q33 152 152 238q104 76 237 76q111 0 185.5 -55.5t74.5 -153.5q0 -23 -6 -51q-29 -135 -184 -240q-51 -33 -279 -141q-147 -70 -161 -125h516 l-23 -107h-651z" />
<glyph unicode="&#xb3;" horiz-adv-x="806" d="M170 768v25.5t8 42.5h125q-2 -12 -3 -26.5t-1 -21.5q0 -70 48 -106.5t122 -36.5q82 0 150.5 45t85.5 125q4 25 4 35q0 61 -53.5 90t-131.5 29h-28q-20 -4 -29 -4l20 100q109 0 158 16q86 29 105 121q2 8 2 16.5v12.5q0 47 -40 76.5t-100 29.5q-76 0 -139 -46t-84 -140 h-121q31 139 142 215q98 68 223 68q111 0 184.5 -49.5t73.5 -137.5q0 -12 -4 -41q-29 -127 -160 -178q117 -39 117 -164q0 -24 -6 -49q-29 -127 -150 -205q-111 -70 -246 -69q-117 0 -190 55q-82 61 -82 172z" />
<glyph unicode="&#xb4;" horiz-adv-x="370" d="M190 893l121 563h142l-121 -563h-142z" />
<glyph unicode="&#xb5;" horiz-adv-x="1101" d="M-88 -410l319 1497h183l-123 -581q-12 -55 -12 -119q0 -115 43 -182q53 -84 159 -84q137 0 242 141q84 115 117 266l118 559h183l-164 -772q-4 -20 -8 -47.5t-4 -50.5q0 -39 12 -60.5t47 -21.5q12 0 35 6l-33 -147q-27 -6 -51.5 -10t-50.5 -4q-158 0 -158 163 q-59 -84 -139 -131t-172 -47q-84 0 -147.5 41t-106.5 113l-113 -529h-176z" />
<glyph unicode="&#xb6;" horiz-adv-x="999" d="M248 1126q0 31 6 62q33 166 207 270q160 94 327 94h379l-20 -96h-94l-312 -1458h-94l311 1458h-180l-311 -1458h-94l190 889q-143 0 -237 76q-78 66 -78 163zM262 1087l49 228h47l27 -193l111 193h45l-47 -228h-31l41 191l-113 -191h-29l-28 197l-43 -197h-29zM528 1026 l2 25l66 -11q47 0 59 41l11 45q-23 -35 -72 -34q-59 0 -59 55q0 18 2 29q18 92 120 92h25.5t42.5 -8l-41 -183q-12 -59 -92 -59h-37q-18 6 -27 8zM561 1153q0 -39 43 -39q57 0 72 60l16 67l-37 2q-74 0 -92 -69q-2 -8 -2 -21z" />
<glyph unicode="&#xb7;" horiz-adv-x="352" d="M184 862l47 225h209l-47 -225h-209z" />
<glyph unicode="&#xbb;" horiz-adv-x="886" d="M43 203l39 176l250 170l-178 168l39 180l274 -248l-43 -203zM459 203l39 176l252 170l-181 168l39 180l275 -248l-43 -203z" />
<glyph unicode="&#xbd;" horiz-adv-x="1693" d="M184 -41l1233 1493h125l-1233 -1493h-125zM256 1196l16 82q92 0 162 33q86 41 115 125h88l-174 -813h-121l123 573h-209zM922 0q33 158 186 264q23 16 272 146q147 78 166 159q4 20 4 31q0 53 -40 83t-103 30q-80 0 -141 -45q-72 -53 -92 -148h-119q31 141 143 221 q102 72 229 72q104 0 176 -51t72 -141q0 -23 -6 -52q-27 -125 -149 -198q-121 -53 -242 -107q-145 -68 -201 -164h494l-21 -100h-628z" />
<glyph unicode="&#xff;" horiz-adv-x="184" d="M4 0l4 37l15 -31l18 31l-2 -37l2 33l-21 -33l-10 33zM41 0q4 -6 14 -6q10 4 11 10l-11 -4q-12 0 -10 14.5t16 14.5l9 -6l2 6l-2 -25q-2 -14 -17 -14q-12 0 -12 10zM47 13.5q-4 -11.5 8 -11.5q10 0 14.5 11.5t-8.5 11.5q-10 0 -14 -11.5z" />
<glyph unicode="&#x2000;" horiz-adv-x="876" />
<glyph unicode="&#x2001;" horiz-adv-x="1753" />
<glyph unicode="&#x2002;" horiz-adv-x="876" />
<glyph unicode="&#x2003;" horiz-adv-x="1753" />
<glyph unicode="&#x2004;" horiz-adv-x="584" />
<glyph unicode="&#x2005;" horiz-adv-x="438" />
<glyph unicode="&#x2006;" horiz-adv-x="292" />
<glyph unicode="&#x2007;" horiz-adv-x="292" />
<glyph unicode="&#x2008;" horiz-adv-x="219" />
<glyph unicode="&#x2009;" horiz-adv-x="350" />
<glyph unicode="&#x200a;" horiz-adv-x="97" />
<glyph unicode="&#x2010;" horiz-adv-x="704" d="M115 467l35 164h503l-35 -164h-503z" />
<glyph unicode="&#x2011;" horiz-adv-x="704" d="M115 467l35 164h503l-35 -164h-503z" />
<glyph unicode="&#x2012;" horiz-adv-x="704" d="M115 467l35 164h503l-35 -164h-503z" />
<glyph unicode="&#x2013;" horiz-adv-x="1183" d="M106 494l23 112h1040l-22 -112h-1041z" />
<glyph unicode="&#x2014;" horiz-adv-x="1531" d="M106 494l23 112h1389l-23 -112h-1389z" />
<glyph unicode="&#x2018;" horiz-adv-x="348" d="M213 987l51 238q20 96 91 166.5t171 99.5l-20 -94q-63 -10 -105 -78q-31 -51 -45 -125h107l-45 -207h-205z" />
<glyph unicode="&#x2019;" horiz-adv-x="348" d="M211 989l20 94q66 10 105 78q29 47 45 125h-107l45 207h205l-51 -238q-20 -96 -91 -166.5t-171 -99.5z" />
<glyph unicode="&#x201c;" horiz-adv-x="669" d="M213 987l51 238q20 96 91 166.5t171 99.5l-20 -94q-63 -10 -105 -78q-31 -51 -45 -125h107l-45 -207h-205zM520 987l51 238q20 96 91 166.5t172 99.5l-21 -94q-63 -10 -104 -78q-31 -51 -45 -125h106l-45 -207h-205z" />
<glyph unicode="&#x201d;" horiz-adv-x="669" d="M211 989l20 94q66 10 105 78q29 47 45 125h-107l45 207h205l-51 -238q-20 -96 -91 -166.5t-171 -99.5zM518 989l21 94q66 10 104 78q29 47 45 125h-106l45 207h204l-51 -238q-20 -96 -91 -166.5t-171 -99.5z" />
<glyph unicode="&#x201e;" horiz-adv-x="688" d="M-66 -305l23 100q66 20 102 82q25 41 43 123h-102l47 223h209l-51 -241q-23 -106 -92.5 -178t-178.5 -109zM262 -305l23 100q66 20 102 82q25 41 43 123h-102l47 223h209l-52 -241q-23 -106 -92 -178t-178 -109z" />
<glyph unicode="&#x2022;" horiz-adv-x="1142" d="M156 674q0 25 2 52.5t8 53.5q43 201 217 345.5t377 144.5q207 0 315 -146q82 -106 82 -239q0 -50 -12 -105q-43 -201 -217 -346t-377 -145t-315 143q-80 104 -80 242z" />
<glyph unicode="&#x2026;" horiz-adv-x="1044" d="M0 0l47 223h209l-47 -223h-209zM348 0l47 223h209l-47 -223h-209zM696 0l47 223h209l-47 -223h-209z" />
<glyph unicode="&#x202f;" horiz-adv-x="350" />
<glyph unicode="&#x2039;" d="M145 555l29 131l1219 492l-35 -158l-989 -399l819 -400l-35 -160z" />
<glyph unicode="&#x203a;" d="M39 61l35 160l989 400l-819 399l35 158l1009 -492l-28 -131z" />
<glyph unicode="&#x205f;" horiz-adv-x="438" />
<glyph unicode="&#x2122;" horiz-adv-x="1474" d="M299 1399l20 92h574l-21 -88h-235l-141 -662h-103l142 658h-236zM772 741l162 750h147l66 -633l346 633h143l-161 -750h-99l137 643l-346 -643h-96l-67 641l-138 -641h-94z" />
<glyph unicode="&#x25fc;" horiz-adv-x="1085" d="M0 0v1085h1085v-1085h-1085z" />
</font>
</defs>
</svg>
